<?xml version="1.0" encoding="UTF-8" standalone="no"?>
<!-- Created with Inkscape (http://www.inkscape.org/) -->

<svg
   xmlns:dc="http://purl.org/dc/elements/1.1/"
   xmlns:cc="http://creativecommons.org/ns#"
   xmlns:rdf="http://www.w3.org/1999/02/22-rdf-syntax-ns#"
   xmlns:svg="http://www.w3.org/2000/svg"
   xmlns="http://www.w3.org/2000/svg"
   xmlns:sodipodi="http://sodipodi.sourceforge.net/DTD/sodipodi-0.dtd"
   xmlns:inkscape="http://www.inkscape.org/namespaces/inkscape"
   width="70.908333mm"
   height="70.908333mm"
   viewBox="0 0 70.908333 70.908333"
   version="1.1"
   id="svg8"
   inkscape:version="0.92.4 (5da689c313, 2019-01-14)"
   sodipodi:docname="pdf-arde.svg">
  <defs
     id="defs2" />
  <sodipodi:namedview
     id="base"
     pagecolor="#ffffff"
     bordercolor="#666666"
     borderopacity="1.0"
     inkscape:pageopacity="0.0"
     inkscape:pageshadow="2"
     inkscape:zoom="1.4"
     inkscape:cx="107.19611"
     inkscape:cy="135.90092"
     inkscape:document-units="mm"
     inkscape:current-layer="g828"
     showgrid="false"
     fit-margin-top="0"
     fit-margin-left="0"
     fit-margin-right="0"
     fit-margin-bottom="0"
     showguides="true"
     inkscape:guide-bbox="true"
     inkscape:snap-global="false"
     inkscape:window-width="1600"
     inkscape:window-height="860"
     inkscape:window-x="1366"
     inkscape:window-y="0"
     inkscape:window-maximized="1">
    <sodipodi:guide
       position="33.639881,34.962797"
       orientation="0,1"
       id="guide846"
       inkscape:locked="false" />
    <sodipodi:guide
       position="34.962797,40.821428"
       orientation="1,0"
       id="guide848"
       inkscape:locked="false" />
  </sodipodi:namedview>
  <metadata
     id="metadata5">
    <rdf:RDF>
      <cc:Work
         rdf:about="">
        <dc:format>image/svg+xml</dc:format>
        <dc:type
           rdf:resource="http://purl.org/dc/dcmitype/StillImage" />
        <dc:title></dc:title>
      </cc:Work>
    </rdf:RDF>
  </metadata>
  <g
     inkscape:label="Capa 1"
     inkscape:groupmode="layer"
     id="layer1"
     transform="translate(58.510715,-113.37917)">
    <g
       id="g828"
       transform="translate(-51.404762,-8.3154762)">
      <rect
         style="opacity:1;fill:#ffeee8;fill-opacity:1;stroke:none;stroke-width:1.93680286;stroke-miterlimit:4;stroke-dasharray:none;stroke-opacity:1"
         id="rect869"
         width="71.248512"
         height="71.248512"
         x="-7.2949414"
         y="121.35447" />
      <g
         id="g930">
        <path
           style="fill:#ef532e;stroke-width:0.35277778"
           d="m 11.63006,178.52162 c -0.09353,-0.24448 -0.128843,-9.57263 -0.07848,-20.72922 l 0.09157,-20.28472 13.070788,-0.0924 13.070789,-0.0924 3.424954,3.48603 3.424957,3.48603 -0.09158,17.24388 -0.09158,17.2439 -16.325691,0.0917 c -12.872181,0.0723 -16.361661,-0.002 -16.49574,-0.35278 z m 30.796674,-17.17833 c 0.07216,-12.30637 -0.0037,-15.73617 -0.352778,-15.95779 -0.244578,-0.15526 -1.589204,-0.28473 -2.98806,-0.2877 l -2.543372,-0.005 -0.102461,-2.91042 -0.102461,-2.91042 -11.264952,-0.0932 c -8.777379,-0.0727 -11.327472,0.005 -11.54807,0.35277 -0.327085,0.51528 -0.402499,36.26509 -0.07828,37.10998 0.193186,0.50343 1.708342,0.55235 14.552084,0.46982 l 14.336444,-0.0921 z m -24.428904,10.215 c -0.12418,-0.20093 -0.0085,-0.44871 0.25712,-0.55063 0.872757,-0.3349 9.089287,-0.004 9.089126,0.36668 -2.12e-4,0.48862 -9.047895,0.66669 -9.346246,0.18395 z m -0.0029,-5.29627 c -0.122616,-0.19839 -0.01218,-0.44159 0.2454,-0.54043 0.901279,-0.34586 19.682527,-0.003 19.773209,0.36109 0.122544,0.49185 -19.715625,0.66958 -20.018609,0.17934 z m 0,-5.29166 c -0.122616,-0.1984 -0.01218,-0.4416 0.2454,-0.54044 0.901279,-0.34585 19.682527,-0.003 19.773209,0.36109 0.122544,0.49185 -19.715625,0.66959 -20.018609,0.17935 z m 0,-5.29167 c -0.122616,-0.1984 -0.01218,-0.44159 0.2454,-0.54044 0.901279,-0.34585 19.682527,-0.003 19.773209,0.36109 0.122544,0.49186 -19.715625,0.66959 -20.018609,0.17935 z m 0,-5.29166 c -0.122616,-0.1984 -0.01218,-0.4416 0.2454,-0.54045 0.901279,-0.34585 19.682527,-0.003 19.773209,0.3611 0.122544,0.49185 -19.715625,0.66958 -20.018609,0.17935 z m 23.021942,-6.62663 c 0.08142,-0.24753 -0.501971,-1.10006 -1.296423,-1.89451 -1.201212,-1.20121 -1.533416,-1.37063 -1.972702,-1.00606 -0.640341,0.53144 -0.696747,2.51184 -0.08886,3.11973 0.554835,0.55483 3.159305,0.38485 3.357983,-0.21916 z"
           id="path932"
           inkscape:connector-curvature="0" />
      </g>
    </g>
    <path
       style="fill:#000000;stroke-width:0.35277778"
       d=""
       id="path826"
       inkscape:connector-curvature="0" />
  </g>
</svg>
